<svg id="visual" viewBox="0 0 900 600" width="900" height="600" xmlns="http://www.w3.org/2000/svg" xmlns:xlink="http://www.w3.org/1999/xlink" version="1.1"><rect x="0" y="0" width="900" height="600" fill="#ffffff"></rect><path d="M0 72L25 76.7C50 81.3 100 90.7 150 100.3C200 110 250 120 300 114.7C350 109.3 400 88.7 450 75.3C500 62 550 56 600 56.5C650 57 700 64 750 77.5C800 91 850 111 875 121L900 131L900 0L875 0C850 0 800 0 750 0C700 0 650 0 600 0C550 0 500 0 450 0C400 0 350 0 300 0C250 0 200 0 150 0C100 0 50 0 25 0L0 0Z" fill="#cce5f5" stroke-linecap="round" stroke-linejoin="miter"></path></svg>