<svg id="visual" viewBox="0 0 900 600" width="900" height="600" xmlns="http://www.w3.org/2000/svg" xmlns:xlink="http://www.w3.org/1999/xlink" version="1.1"><rect x="0" y="0" width="900" height="600" fill="#ffffff"></rect><path d="M0 501L21.5 499.3C43 497.7 86 494.3 128.8 495C171.7 495.7 214.3 500.3 257.2 497C300 493.7 343 482.3 385.8 474.3C428.7 466.3 471.3 461.7 514.2 471C557 480.3 600 503.7 642.8 515.5C685.7 527.3 728.3 527.7 771.2 516.8C814 506 857 484 878.5 473L900 462L900 601L878.5 601C857 601 814 601 771.2 601C728.3 601 685.7 601 642.8 601C600 601 557 601 514.2 601C471.3 601 428.7 601 385.8 601C343 601 300 601 257.2 601C214.3 601 171.7 601 128.8 601C86 601 43 601 21.5 601L0 601Z" fill="#4433ff" stroke-linecap="round" stroke-linejoin="miter"></path></svg>